<svg xmlns="http://www.w3.org/2000/svg" viewBox="0 0 512 512">
  <defs>
    <linearGradient id="bg" x1="0" y1="0" x2="1" y2="1">
      <stop offset="0" stop-color="#1a3a6b"/>
      <stop offset="1" stop-color="#071426"/>
    </linearGradient>
    <linearGradient id="gold" x1="0" y1="0" x2="1" y2="1">
      <stop offset="0" stop-color="#f7df7a"/>
      <stop offset="1" stop-color="#b88b24"/>
    </linearGradient>
  </defs>
  <rect width="512" height="512" rx="112" fill="url(#bg)"/>
  <circle cx="256" cy="226" r="132" fill="url(#gold)"/>
  <circle cx="256" cy="226" r="109" fill="#f8fafc"/>
  <path d="m256 139 49 36-19 58h-60l-19-58z" fill="#0f2d5a"/>
  <path d="m147 211 61-36 18 58-49 36-48-35zm218 0-61-36-18 58 49 36 48-35zM188 325l-11-56 49-36 49 36-19 57zm136 0 11-56-49-36-49 36 19 57z" fill="#1a3a6b"/>
  <path d="M188 373h136l38 58H150z" fill="url(#gold)"/>
  <text x="256" y="421" fill="#071426" font-family="Arial,sans-serif" font-size="34" font-weight="700" text-anchor="middle">2026</text>
</svg>
